<svg width="90" height="90" viewBox="-15 15 90 90" version="1.1" xmlns="http://www.w3.org/2000/svg">
    <defs id="SvgjsDefs1802"></defs>
    <g id="SvgjsG1803"
        transform="matrix(6.639838677459113,0,0,6.639838677459113,1.6800759120877347,-41.79664690431002)"
        fill="#000000">
        <path
            d="M9.72 19.98 l-2.2 -0.000019531 l-1.41 0 l-0.87 0 l-0.57 0.01 l-0.51 0.01 l-0.7 0 l-1.14 0 l-1.82 0 l0 -9.94 l5.3 0 c0.44 0 0.85666 0.08334 1.25 0.25 s0.73668 0.39666 1.03 0.69 s0.52668 0.63668 0.70002 1.03 s0.26 0.81 0.26 1.25 c0 0.6 -0.14666 1.1433 -0.44 1.63 s-0.67334 0.87 -1.14 1.15 l2.26 3.92 l0 0 z">
        </path>
    </g>
</svg>