<svg xmlns:dc="http://purl.org/dc/elements/1.1/" xmlns:cc="http://creativecommons.org/ns#" xmlns:rdf="http://www.w3.org/1999/02/22-rdf-syntax-ns#" xmlns:svg="http://www.w3.org/2000/svg" xmlns="http://www.w3.org/2000/svg" xmlns:xlink="http://www.w3.org/1999/xlink" id="svg583045" viewBox="370 310 280 150" height="100px" width="360px" version="1.1">
        <path id="path583054" style="font-style:normal;font-weight:normal;font-size:72px;line-height:1;font-family:'Brandmark Stencil 1';font-variant-ligatures:normal;text-align:center;text-anchor:middle" d="m 447.35694,-2.376 h -44.568 c -2.808,0 -5.4,-1.368 -6.984,-3.6 l -10.944,-15.624 h 0.72 c 7.704,0 14.04,-6.264 14.04,-13.968 0,-7.776 -6.336,-14.04 -14.04,-14.04 h -16.2 c -0.648,0 -1.224,0.504 -1.224,1.224 0,0.648 0.576,1.224 1.224,1.224 h 16.2 c 6.408,0 11.592,5.184 11.592,11.592 0,6.336 -5.184,11.592 -11.592,11.592 h -3.096 c -0.072,0 -0.144,0 -0.144,0 h -0.072 c -0.072,0 -0.144,0 -0.144,0.072 h -0.144 c 0,0 0,0.072 -0.072,0.072 0,0 -0.072,0 -0.072,0.072 -0.072,0 -0.072,0 -0.072,0 l -0.072,0.072 c 0,0 -0.072,0 -0.072,0.072 l -0.072,0.072 c 0,0.072 -0.072,0.072 -0.072,0.072 0,0.072 -0.072,0.072 -0.072,0.144 0,0 0,0.072 -0.072,0.072 0,0.072 0,0.072 0,0.144 v 0.072 c -0.072,0.072 -0.072,0.144 -0.072,0.216 0,0 0,0 0,0.072 0,0.072 0,0.072 0.072,0.144 0,0.072 0,0.072 0,0.072 v 0.144 c 0,0 0,0.072 0.072,0.072 v 0.144 c 0.072,0 0.072,0.072 0.072,0.072 l 12.384,17.496 c 2.016,2.88 5.4,4.608 8.928,4.608 h 44.568 c 0.72,0 1.224,-0.504 1.224,-1.152 0,-0.72 -0.504,-1.224 -1.224,-1.224 z m -27.648,-44.784 h 27.648 c 0.72,0 1.224,-0.576 1.224,-1.224 0,-0.72 -0.504,-1.224 -1.224,-1.224 h -27.648 c -0.648,0 -1.224,0.504 -1.224,1.224 0,0.648 0.576,1.224 1.224,1.224 z m -50.328,4.032 c -0.648,0 -1.224,0.504 -1.224,1.152 v 40.824 c 0,0.648 0.576,1.152 1.224,1.152 0.648,0 1.224,-0.504 1.224,-1.152 v -40.824 c 0,-0.648 -0.576,-1.152 -1.224,-1.152 z m 50.328,18.792 h 27.144 c 0.648,0 1.224,-0.576 1.224,-1.224 0,-0.648 -0.576,-1.224 -1.224,-1.224 h -27.144 c -0.648,0 -1.224,0.576 -1.224,1.224 0,0.648 0.576,1.224 1.224,1.224 z" stroke-width="0" stroke-linejoin="miter" stroke-miterlimit="2" fill="#fff" stroke="#fff" transform="translate(0 325.81319499999995) translate(267.52779486000014 16.771640000000012) scale(1.67) translate(-368.15694 49.608)"></path>
        <path id="path583056" style="font-style:normal;font-weight:normal;font-size:72px;line-height:1;font-family:'Brandmark Stencil 1';font-variant-ligatures:normal;text-align:center;text-anchor:middle" d="m 483.37381,-0.72 19.8,-46.44 h 44.568 c 0.648,0 1.224,-0.576 1.224,-1.224 0,-0.72 -0.576,-1.224 -1.224,-1.224 h -45.36 -0.216 c 0,0 -0.072,0 -0.072,0.072 h -0.144 c -0.072,0 -0.072,0.072 -0.072,0.072 -0.072,0 -0.072,0 -0.144,0.072 0,0 -0.072,0 -0.072,0.072 -0.072,0 -0.072,0 -0.144,0.072 v 0.072 c -0.072,0 -0.072,0.072 -0.144,0.072 0,0.072 0,0.144 -0.072,0.144 v 0.072 l -19.008,44.64 -19.08,-44.64 c -0.216,-0.576 -0.936,-0.864 -1.584,-0.648 -0.576,0.288 -0.864,1.008 -0.648,1.584 l 20.16,47.232 c 0.072,0.144 0.144,0.216 0.144,0.288 0.072,0 0.072,0 0.072,0.072 0.072,0.072 0.144,0.144 0.216,0.216 h 0.072 c 0.072,0 0.072,0.072 0.144,0.072 h 0.072 c 0.072,0.072 0.072,0.072 0.072,0.072 h 0.36 0.288 c 0,0 0.072,0 0.072,-0.072 h 0.072 c 0.072,0 0.144,-0.072 0.144,-0.072 0,0 0.072,0 0.072,0 l 0.216,-0.216 c 0,-0.072 0.072,-0.072 0.072,-0.072 0.072,-0.072 0.072,-0.144 0.144,-0.288 z m 63.864,-26.064 h -27.144 c -0.72,0 -1.224,0.576 -1.224,1.224 0,0.648 0.504,1.224 1.224,1.224 h 27.144 c 0.648,0 1.224,-0.576 1.224,-1.224 0,-0.648 -0.576,-1.224 -1.224,-1.224 z m 0.504,24.408 h -27.648 c -0.72,0 -1.224,0.504 -1.224,1.224 0,0.648 0.504,1.152 1.224,1.152 h 27.648 c 0.648,0 1.224,-0.504 1.224,-1.152 0,-0.72 -0.576,-1.224 -1.224,-1.224 z" stroke-width="0" stroke-linejoin="miter" stroke-miterlimit="2" fill="#fff" stroke="#fff" transform="translate(0 325.81319499999995) translate(422.4255553600001 16.771640000000012) scale(1.67) translate(-460.91009 49.608)"></path>
        <path id="path583058" style="font-style:normal;font-weight:normal;font-size:72px;line-height:1;font-family:'Brandmark Stencil 1';font-variant-ligatures:normal;text-align:center;text-anchor:middle" d="m 601.91394,-49.608 c -0.72,0 -1.224,0.504 -1.224,1.224 v 30.096 c 0,8.784 -7.128,15.912 -15.912,15.912 -8.712,0 -15.84,-7.128 -15.84,-15.912 v -30.096 c 0,-0.72 -0.576,-1.224 -1.224,-1.224 -0.648,0 -1.224,0.504 -1.224,1.224 v 30.096 c 0,10.08 8.208,18.288 18.288,18.288 10.152,0 18.36,-8.208 18.36,-18.288 v -30.096 c 0,-0.72 -0.576,-1.224 -1.224,-1.224 z" stroke-width="0" stroke-linejoin="miter" stroke-miterlimit="2" fill="#fff" stroke="#fff" transform="translate(0 325.81319499999995) translate(598.7439048600002 16.771640000000012) scale(1.67) translate(-566.48994 49.608)"></path>
        <path id="path583060" style="font-style:normal;font-weight:normal;font-size:72px;line-height:1;font-family:'Brandmark Stencil 1';font-variant-ligatures:normal;text-align:center;text-anchor:middle" d="m 660.66031,-1.944 -37.44,-47.232 c -0.432,-0.504 -1.152,-0.576 -1.656,-0.216 -0.576,0.432 -0.648,1.224 -0.216,1.728 l 37.44,47.232 c 0.216,0.288 0.576,0.432 0.936,0.432 0.288,0 0.504,-0.072 0.72,-0.216 0.576,-0.432 0.648,-1.224 0.216,-1.728 z m -17.64,-27.504 c 0.288,0.144 0.432,0.288 0.72,0.288 0.36,0 0.72,-0.144 0.936,-0.432 l 14.328,-18.072 c 0.432,-0.504 0.288,-1.296 -0.216,-1.728 -0.504,-0.36 -1.296,-0.288 -1.656,0.216 l -14.328,18.072 c -0.432,0.504 -0.36,1.368 0.216,1.656 z m -5.616,7.056 c -0.504,-0.432 -1.296,-0.288 -1.728,0.216 l -15.984,20.232 c -0.432,0.504 -0.36,1.296 0.144,1.728 0.216,0.144 0.504,0.216 0.792,0.216 0.36,0 0.72,-0.144 0.936,-0.432 l 16.056,-20.232 c 0.432,-0.504 0.288,-1.296 -0.216,-1.728 z" stroke-width="0" stroke-linejoin="miter" stroke-miterlimit="2" fill="#fff" stroke="#fff" transform="translate(0 325.81319499999995) translate(687.11815056 16.756610000000002) scale(1.67) translate(-619.40865 49.617)"></path>
</svg>